HIERARCHY
ROOT Hips
{
   OFFSET 0.00000 0.00000 0.00000
   CHANNELS 6 Xposition Yposition Zposition Zrotation Xrotation Yrotation
   JOINT Spine
   {
      OFFSET 0.000000 14.268601 0.000000
      CHANNELS 3 Zrotation Xrotation Yrotation
      JOINT Spine1
      {
         OFFSET -0.000000 30.788881 0.153192
         CHANNELS 3 Zrotation Xrotation Yrotation
         JOINT HEad
         {
            OFFSET 0.000000 10.480993 0.013608
            CHANNELS 3 Zrotation Xrotation Yrotation
            End Site
            {
               OFFSET -0.348000 15.329041 3.016740
            }
         }
         JOINT LeftShoulder1
         {
            OFFSET 10.788001 -0.434700 -0.264000
            CHANNELS 3 Zrotation Xrotation Yrotation
            JOINT LeftArm
            {
               OFFSET 12.339240 -0.004056 0.386544
               CHANNELS 3 Zrotation Xrotation Yrotation
               JOINT LeftForeArm
               {
                  OFFSET 39.320280 0.118968 -1.709208
                  CHANNELS 3 Zrotation Xrotation Yrotation
                  JOINT LeftHand
                  {
                     OFFSET 33.077163 0.102432 1.226592
                     CHANNELS 3 Zrotation Xrotation Yrotation
                     End Site
                     {
                        OFFSET 20.093162 -0.720000 1.803492
                     }
                  }
               }
            }
         }
         JOINT RightShoulder
         {
            OFFSET -10.788001 -0.434700 -0.264000
            CHANNELS 3 Zrotation Xrotation Yrotation
            JOINT RightArm
            {
               OFFSET -12.339240 -0.004056 0.386544
               CHANNELS 3 Zrotation Xrotation Yrotation
               JOINT RightForeArm
               {
                  OFFSET -39.476518 0.118968 -1.709208
                  CHANNELS 3 Zrotation Xrotation Yrotation
                  JOINT RightHand
                  {
                     OFFSET -32.990522 0.102432 1.226592
                     CHANNELS 3 Zrotation Xrotation Yrotation
                     End Site
                     {
                        OFFSET -19.957442 -0.720000 1.803492
                     }
                  }
               }
            }
         }
      }
   }
   JOINT LeftUpLeg
   {
      OFFSET 10.734961 -10.400485 0.121980
      CHANNELS 3 Zrotation Xrotation Yrotation
      JOINT LeftLeg
      {
         OFFSET 0.000000 -53.307237 1.647240
         CHANNELS 3 Zrotation Xrotation Yrotation
         JOINT LeftFoot
         {
            OFFSET -0.304260 -50.510883 -1.752708
            CHANNELS 3 Zrotation Xrotation Yrotation
            JOINT LeftToes
            {
               OFFSET -0.048000 -5.298108 10.198920
               CHANNELS 3 Zrotation Xrotation Yrotation
               End Site
               {
                  OFFSET 0.096000 -0.056940 11.735748
               }
            }
         }
      }
   }
   JOINT RightUpLeg
   {
      OFFSET -10.734961 -10.400485 0.121980
      CHANNELS 3 Zrotation Xrotation Yrotation
      JOINT RightLeg
      {
         OFFSET 0.000000 -53.307237 1.647240
         CHANNELS 3 Zrotation Xrotation Yrotation
         JOINT RightFoot
         {
            OFFSET 0.304260 -50.510883 -1.752708
            CHANNELS 3 Zrotation Xrotation Yrotation
            JOINT RightToes
            {
               OFFSET 0.048000 -5.298108 10.198920
               CHANNELS 3 Zrotation Xrotation Yrotation
               End Site
               {
                  OFFSET -0.096000 -0.164940 11.735748
               }
            }
         }
      }
   }
}
MOTION
Frames: 7
Frame Time: 0.016670
-65.939077 96.925677 -9.745691 33.283300 55.738541 147.531963 16.727335 62.506435 98.696486 27.485699 -16.349296 -122.564111 -21.740688 31.778674 2.751885 38.512233 27.651334 -62.519337 349.555039 -93.771087 314.822762 0.197725 -22.729527 -39.540607 -52.726632 -56.329581 -67.453685 -40.677974 33.578002 61.176147 25.386956 98.109821 273.756441 7.266627 155.706552 53.029930 -11.055605 -12.182212 78.394043 21.198467 31.580551 21.898835 21.343455 16.798519 104.194447 -61.086664 93.600714 4.650712 44.684686 -13.051741 -89.772161 -25.292213 62.353610 57.390084 36.557368 10.669250 55.569350 -58.630487 44.677039 2.339317 67.486647 -77.986362 -45.953055
-66.659993 95.898522 -11.949441 35.040926 57.382482 146.919828 20.536050 62.872998 97.599701 24.656274 -15.289303 -122.998648 -20.971655 31.874331 2.873607 40.266837 29.033317 -63.190636 349.397589 -91.429527 312.745100 2.921428 -21.890507 -37.085311 -56.090893 -54.859861 -69.122115 -42.419498 33.515472 60.641780 25.768142 98.707100 275.632147 10.469182 157.662308 51.121302 -12.530813 -11.933892 84.173373 20.612666 32.462861 19.444512 22.572115 16.812791 106.463497 -64.347861 93.121980 5.213344 44.925904 -12.175785 -88.517626 -27.326192 64.301785 59.049116 36.926800 12.654142 56.079067 -58.261288 43.978420 2.126709 67.123657 -79.195586 -46.489123
-67.476014 94.934329 -14.323550 36.520185 58.894119 147.096675 22.885148 60.172177 98.357579 20.310563 -14.399992 -124.916715 -18.464925 29.642560 2.806039 43.226888 30.261341 -69.170029 352.684386 -91.437552 316.197078 7.867779 -23.281856 -32.152480 -61.680303 -51.851460 -71.276521 -44.337616 32.658082 60.965613 28.015197 99.737544 275.416887 10.213926 158.995534 45.541973 -14.182911 -11.862347 89.369310 20.198481 33.080129 16.379098 24.063834 17.118139 108.323440 -64.883293 92.692934 4.864839 43.081640 -11.672084 -88.437815 -30.077015 67.166926 60.801900 36.838161 13.316625 56.741530 -58.004446 43.290217 2.031731 67.143362 -80.334151 -46.449098
-68.388971 94.035204 -16.921079 38.755532 58.392366 145.978136 23.176486 59.467424 98.917935 16.433092 -13.556840 -127.046464 -17.162309 30.064601 3.034696 45.092178 28.337473 -74.071038 353.536247 -91.742213 320.902696 13.723957 -25.685848 -29.506158 -68.726053 -49.684787 -75.344732 -45.459758 33.302192 62.795236 26.451741 100.015143 274.491916 12.110849 160.320031 42.853269 -15.879683 -12.307899 92.375597 20.426260 33.100210 13.005793 26.277952 17.344924 110.213094 -66.449244 91.466615 3.843555 42.996891 -11.451416 -89.012781 -31.747556 68.219390 62.668024 37.064442 13.748709 57.371929 -57.721225 42.805263 2.190621 67.546541 -81.838603 -45.729452
-69.391335 93.292187 -19.520369 40.816118 56.959724 143.123226 24.157869 59.804945 99.630221 18.144063 -14.983014 -126.212498 -16.414423 32.774523 3.389666 47.936569 25.918225 -73.113179 356.590762 -94.576031 328.929616 14.600504 -21.090470 -29.969111 -71.995002 -48.476257 -74.876509 -43.280207 37.228315 63.683932 28.574875 99.442951 270.385688 8.667248 159.613803 47.474712 -11.746343 -12.217922 91.756270 20.433199 33.484668 10.734311 27.016016 18.613744 112.237247 -66.336696 89.779401 3.345508 42.448174 -11.658950 -89.399567 -33.430859 67.458247 65.059205 36.705723 14.992935 57.593268 -57.145276 42.962406 2.636890 68.472264 -83.996669 -44.467909
-70.491985 92.682179 -22.059192 44.100780 54.314904 139.448803 21.936542 58.928926 99.296129 16.806418 -15.353012 -125.510231 -15.683178 33.492297 3.858391 47.303179 25.565881 -75.900812 359.427476 -100.232910 339.656483 14.077621 -15.106225 -33.811318 -72.133935 -49.919425 -73.599462 -41.473800 40.134332 64.091005 32.108982 98.462293 264.684310 2.768269 161.883516 49.930595 -9.290888 -10.477919 89.908376 21.857891 33.827707 8.438389 27.457084 20.210762 114.513558 -66.310359 87.392721 2.433455 42.395292 -12.628473 -90.007707 -32.804757 67.855764 67.294111 36.470017 15.583604 58.060317 -72.566887 44.209263 4.413773 84.657483 -86.181674 -44.459337
-71.600965 92.198876 -24.474299 47.731056 53.014439 135.626083 18.817287 63.277167 100.133736 14.684838 -14.415656 -122.023215 -14.475582 31.890614 4.330322 49.671284 26.665543 -70.840857 372.220475 -102.918895 355.992519 13.678780 -9.047516 -38.570758 -69.582969 -52.587751 -70.750344 -39.491536 44.700443 65.442529 41.198434 95.257657 257.065972 -0.899991 163.686057 54.051050 -8.493671 -7.309466 91.824899 23.362321 35.203014 7.917040 27.344237 22.044801 115.121076 -66.327154 84.341416 0.863680 42.897539 -13.941780 -90.897305 -34.577283 67.552811 68.605453 34.281754 18.467238 58.050174 -65.412749 45.120725 2.702393 78.289944 -87.425322 -43.498951
